# 3ds Max Wavefront OBJ Exporter v0.97b - (c)2007 guruware
# File Created: 06.04.2013 22:18:04

#
# object 20276_Tetrahemihexahedron
#

v  0.0000 -0.0000 9.8978
v  -4.9482 -0.0000 4.9496
v  0.0000 -4.9482 4.9496
v  4.9482 0.0000 4.9496
v  -0.0000 4.9482 4.9496
v  0.0000 -0.0000 0.0014
v  -0.1753 0.1753 5.1249
v  0.1753 -0.1753 5.1249
v  -0.1753 -0.1753 4.7743
v  0.1753 0.1753 4.7743
# 10 vertices

vn -0.5774 -0.5774 0.5774
vn 0.5774 0.5774 0.5774
vn -0.5774 0.5774 -0.5774
vn 0.5774 -0.5774 -0.5774
vn -0.9985 0.0381 0.0381
vn -0.0381 0.0381 0.9985
vn -0.0381 0.9985 0.0381
vn 0.9985 -0.0381 0.0381
vn 0.0381 -0.0381 0.9985
vn 0.0381 -0.9985 0.0381
vn -0.0381 -0.0381 -0.9985
vn -0.0381 -0.9985 -0.0381
vn -0.9985 -0.0381 -0.0381
vn 0.0381 0.0381 -0.9985
vn 0.0381 0.9985 -0.0381
vn 0.9985 0.0381 -0.0381
# 16 vertex normals

vt 0.2500 1.0000 0.0000
vt 0.2500 0.5000 0.0000
vt 0.5000 0.5000 0.0000
vt 0.7500 1.0000 0.0000
vt 0.7500 0.5000 0.0000
vt 1.0000 0.5000 0.0000
vt 0.0000 0.0000 0.0000
vt 0.0000 0.5000 0.0000
vt 0.5000 0.0000 0.0000
vt 0.0833 0.6667 0.0000
vt 0.5833 0.6667 0.0000
vt 0.3333 0.3333 0.0000
vt 0.8333 0.3333 0.0000
# 13 texture coords

g 20276_Tetrahemihexahedron
s 2
f 1/1/1 2/2/1 3/3/1 
s 8
f 1/4/2 4/5/2 5/6/2 
s 4
f 6/7/3 2/2/3 5/8/3 
s 1
f 6/9/4 4/5/4 3/3/4 
s off
f 1/4/5 5/6/5 7/10/5 
f 5/8/6 2/2/6 7/10/6 
f 2/2/7 1/1/7 7/10/7 
f 1/1/8 3/3/8 8/11/8 
f 3/3/9 4/5/9 8/11/9 
f 4/5/10 1/4/10 8/11/10 
f 3/3/11 2/2/11 9/12/11 
f 2/2/12 6/7/12 9/12/12 
f 6/9/13 3/3/13 9/12/13 
f 5/6/14 4/5/14 10/13/14 
f 4/5/15 6/9/15 10/13/15 
f 6/7/16 5/8/16 10/13/16 
# 0 polygons - 16 triangles

